<?xml version="1.0" encoding="UTF-8"?>
<svg version="1.1" xmlns="http://www.w3.org/2000/svg" width="592" height="592">
<path d="M0 0 C1.59080383 0.00323273 1.59080383 0.00323273 3.21374512 0.00653076 C18.8274093 0.05744041 34.04712493 0.46029056 49.4375 3.3125 C50.49001953 3.49522461 51.54253906 3.67794922 52.62695312 3.86621094 C79.47379937 8.62180412 106.0283878 17.12071284 130.4375 29.3125 C131.27071777 29.71903809 132.10393555 30.12557617 132.96240234 30.54443359 C156.44086959 42.04883865 178.78745588 56.88910932 197.8359375 74.859375 C200.03268404 76.93078165 202.26573579 78.91680262 204.5625 80.875 C212.1080323 87.43224013 219.02504847 94.6524898 225.4375 102.3125 C225.86836914 102.81362305 226.29923828 103.31474609 226.74316406 103.83105469 C241.50551547 121.03559738 254.12066985 140.13137042 264.4375 160.3125 C264.84661621 161.10624023 265.25573242 161.89998047 265.67724609 162.71777344 C286.82228957 204.16368207 296.9196599 249.50431926 296.75 295.875 C296.74784485 296.93553589 296.7456897 297.99607178 296.74346924 299.08874512 C296.69255959 314.7024093 296.28970944 329.92212493 293.4375 345.3125 C293.25477539 346.36501953 293.07205078 347.41753906 292.88378906 348.50195312 C288.12819588 375.34879937 279.62928716 401.9033878 267.4375 426.3125 C267.03096191 427.14571777 266.62442383 427.97893555 266.20556641 428.83740234 C254.70116135 452.31586959 239.86089068 474.66245588 221.890625 493.7109375 C219.81921835 495.90768404 217.83319738 498.14073579 215.875 500.4375 C209.31775987 507.9830323 202.0975102 514.90004847 194.4375 521.3125 C193.93637695 521.74336914 193.43525391 522.17423828 192.91894531 522.61816406 C175.71440262 537.38051547 156.61862958 549.99566985 136.4375 560.3125 C135.64375977 560.72161621 134.85001953 561.13073242 134.03222656 561.55224609 C92.58631793 582.69728957 47.24568074 592.7946599 0.875 592.625 C-0.18553589 592.62284485 -1.24607178 592.6206897 -2.33874512 592.61846924 C-17.9524093 592.56755959 -33.17212493 592.16470944 -48.5625 589.3125 C-49.61501953 589.12977539 -50.66753906 588.94705078 -51.75195312 588.75878906 C-78.59879937 584.00319588 -105.1533878 575.50428716 -129.5625 563.3125 C-130.39571777 562.90596191 -131.22893555 562.49942383 -132.08740234 562.08056641 C-155.56586959 550.57616135 -177.91245588 535.73589068 -196.9609375 517.765625 C-199.15768404 515.69421835 -201.39073579 513.70819738 -203.6875 511.75 C-211.2330323 505.19275987 -218.15004847 497.9725102 -224.5625 490.3125 C-224.99336914 489.81137695 -225.42423828 489.31025391 -225.86816406 488.79394531 C-240.63051547 471.58940262 -253.24566985 452.49362958 -263.5625 432.3125 C-263.97161621 431.51875977 -264.38073242 430.72501953 -264.80224609 429.90722656 C-285.94728957 388.46131793 -296.0446599 343.12068074 -295.875 296.75 C-295.87284485 295.68946411 -295.8706897 294.62892822 -295.86846924 293.53625488 C-295.81755959 277.9225907 -295.41470944 262.70287507 -292.5625 247.3125 C-292.37977539 246.25998047 -292.19705078 245.20746094 -292.00878906 244.12304688 C-287.25319588 217.27620063 -278.75428716 190.7216122 -266.5625 166.3125 C-266.15596191 165.47928223 -265.74942383 164.64606445 -265.33056641 163.78759766 C-253.82616135 140.30913041 -238.98589068 117.96254412 -221.015625 98.9140625 C-218.94421835 96.71731596 -216.95819738 94.48426421 -215 92.1875 C-208.44275987 84.6419677 -201.2225102 77.72495153 -193.5625 71.3125 C-193.06137695 70.88163086 -192.56025391 70.45076172 -192.04394531 70.00683594 C-174.83940262 55.24448453 -155.74362958 42.62933015 -135.5625 32.3125 C-134.76875977 31.90338379 -133.97501953 31.49426758 -133.15722656 31.07275391 C-91.71131793 9.92771043 -46.37068074 -0.1696599 0 0 Z " fill="#48B975" transform="translate(295.5625,-0.31250000000000006)"/>
<path d="M0 0 C4.9552404 2.97314424 8.56665481 8.33721247 10.16015625 13.84375 C10.32837891 14.69453125 10.32837891 14.69453125 10.5 15.5625 C11.13421875 15.52769531 11.7684375 15.49289063 12.421875 15.45703125 C19.3042351 15.25740478 25.94801948 15.85451881 32.75 16.8125 C33.58885742 16.92182861 34.42771484 17.03115723 35.29199219 17.14379883 C42.13742516 18.17277577 47.97484903 20.1004778 53 25 C55.31194215 30.49086261 55.21748223 35.69558799 54.5 41.5625 C52.51951431 46.26615351 49.84378896 48.58474518 45.171875 50.68359375 C36.49367643 53.53826433 27.60079472 54.76564274 18.5 54.5625 C18.995 60.9975 18.995 60.9975 19.5 67.5625 C21.170625 67.500625 22.84125 67.43875 24.5625 67.375 C32.11679313 67.375 39.18366665 68.77091495 46.5 70.5625 C47.34304687 70.76746094 48.18609375 70.97242188 49.0546875 71.18359375 C53.43780847 72.51507012 56.2556299 74.51322605 58.65234375 78.33984375 C60.66235447 83.61033269 60.36882416 89.36156888 58.90625 94.75 C56.79295601 99.28966857 53.50391 101.08699095 49.05078125 102.78515625 C40.88079299 105.27493828 33.00661891 105.85866855 24.5 105.5625 C24.55800781 106.52929688 24.61601562 107.49609375 24.67578125 108.4921875 C24.95653611 116.5939706 25.10789473 124.04169218 19.5 130.5625 C13.13575865 134.5763113 6.79811139 134.43092515 -0.5 133.5625 C-6.88102147 131.38852423 -11.30560256 126.35588945 -14.5 120.5625 C-18.5 110.66187888 -18.5 110.66187888 -18.5 106.5625 C-20.07974609 106.59730469 -20.07974609 106.59730469 -21.69140625 106.6328125 C-50.85787234 107.0787517 -50.85787234 107.0787517 -62.4375 99.6875 C-66.17171033 95.84013178 -66.80751802 91.86834951 -66.875 86.625 C-66.76689507 81.44232235 -66.23937337 78.39775474 -62.5 74.5625 C-54.15589839 68.67254592 -44.89252545 68.25374171 -34.9375 67.9375 C-33.92880859 67.89882812 -32.92011719 67.86015625 -31.88085938 67.8203125 C-29.4207436 67.72703797 -26.96061634 67.64124484 -24.5 67.5625 C-24.66371094 67.00046875 -24.82742187 66.4384375 -24.99609375 65.859375 C-25.52864997 63.43190944 -25.59898681 61.29360319 -25.5625 58.8125 C-25.55347656 58.01328125 -25.54445312 57.2140625 -25.53515625 56.390625 C-25.52355469 55.78734375 -25.51195312 55.1840625 -25.5 54.5625 C-26.06283691 54.57821045 -26.62567383 54.5939209 -27.20556641 54.61010742 C-59.23550712 55.38360405 -59.23550712 55.38360405 -68.5 46.5625 C-72.03870551 41.74754005 -72.2006003 37.63680941 -72.015625 31.796875 C-71.32771279 27.48178931 -70.08353521 25.1643205 -66.953125 22.1484375 C-56.71426402 15.52904649 -43.30090661 15.34077107 -31.5 15.5625 C-31.29375 14.386875 -31.0875 13.21125 -30.875 12 C-29.67468341 7.20724653 -27.28868796 3.72686692 -23.5 0.5625 C-16.75429937 -2.91466527 -6.97825471 -2.9559725 0 0 Z " fill="#FDFEFE" transform="translate(168.5,165.4375)"/>
<path d="M0 0 C5.05970273 2.25089437 7.04982248 5.39085946 9.3046875 10.3515625 C10.58786642 14.20109926 10.37112387 17.29894385 10.3046875 21.3515625 C11.0575 21.30515625 11.8103125 21.25875 12.5859375 21.2109375 C24.24897671 20.81462063 38.14298304 22.37878152 47.3046875 30.3515625 C57.88732295 40.93419795 57.65139733 54.27003934 57.6875 68.33203125 C57.39411893 87.59738809 49.71849891 106.38584114 36.3046875 120.3515625 C29.37576658 126.92707632 22.03959766 131.53473213 13.3046875 135.3515625 C12.50804687 135.71378906 11.71140625 136.07601562 10.890625 136.44921875 C5.03987126 138.49079596 -1.12011254 138.5822265 -7.2578125 138.6640625 C-7.98677734 138.69306641 -8.71574219 138.72207031 -9.46679688 138.75195312 C-14.68229916 138.8129806 -17.53849102 137.7560181 -21.6953125 134.3515625 C-24.58071464 130.88907994 -25.23878476 127.86063943 -25.04296875 123.33984375 C-24.24267701 118.76289437 -21.60709435 116.06796253 -18.0703125 113.2890625 C-15.38467235 111.74730612 -12.73918063 110.4196727 -9.9453125 109.1015625 C2.84955836 102.7812046 9.36506526 94.52388846 14.3046875 81.3515625 C14.9646875 75.0815625 15.6246875 68.8115625 16.3046875 62.3515625 C-1.1853125 62.3515625 -18.6753125 62.3515625 -36.6953125 62.3515625 C-36.6953125 68.9515625 -36.6953125 75.5515625 -36.6953125 82.3515625 C-38.04946713 89.34802809 -40.03207504 94.75833765 -45.6953125 99.3515625 C-50.94816486 101.93023548 -55.95262333 102.10972652 -61.6953125 101.3515625 C-68.50424907 98.94978008 -72.63624423 93.69841443 -75.6953125 87.3515625 C-78.82885149 79.28713384 -78.96022799 71.14638074 -79.0078125 62.6015625 C-79.01345215 61.63138184 -79.0190918 60.66120117 -79.02490234 59.66162109 C-78.92423514 49.67850533 -77.55604566 39.99661779 -70.85546875 32.21484375 C-60.90816408 22.48339379 -46.72375626 20.48800391 -33.25 20.3046875 C-31.98542969 20.32789063 -31.98542969 20.32789063 -30.6953125 20.3515625 C-30.7778125 19.5471875 -30.8603125 18.7428125 -30.9453125 17.9140625 C-30.57044866 12.57225273 -28.85578564 7.68288939 -25.1640625 3.69921875 C-18.28391447 -2.11855348 -8.57390203 -2.06270687 0 0 Z " fill="#FDFEFE" transform="translate(437.6953125,160.6484375)"/>
<path d="M0 0 C5.87112532 5.60474033 10.08012326 13.38632758 10.30078125 21.59375 C10.50736242 31.21228063 10.57812319 39.58582644 6.0625 48.3125 C5.26392578 49.91158203 5.26392578 49.91158203 4.44921875 51.54296875 C1.05621773 58.08070243 -2.69242723 64.29475948 -6.9375 70.3125 C-6.37675781 70.55097656 -5.81601562 70.78945313 -5.23828125 71.03515625 C3.02910786 75.62503102 10.16347054 84.81522302 14.0625 93.3125 C15.379112 98.36747145 15.77932097 103.20540128 14 108.1875 C11.17607001 112.74222579 8.05655597 115.4021701 3.1875 117.625 C-4.81391533 119.38531137 -10.78440507 118.17083605 -17.9375 114.3125 C-24.61788674 109.73744726 -30.36857206 104.1614299 -35.9375 98.3125 C-39.55332251 99.63083529 -42.46741954 101.25109163 -45.625 103.4375 C-50.58863624 106.65005697 -55.68100586 109.2096356 -61.0625 111.625 C-61.80201904 111.96225098 -62.54153809 112.29950195 -63.3034668 112.64697266 C-71.26996614 116.13920927 -78.9419098 117.6716982 -87.625 117.6875 C-88.34494141 117.71199219 -89.06488281 117.73648438 -89.80664062 117.76171875 C-94.9699679 117.78995937 -97.81748724 116.65807427 -101.9375 113.3125 C-105.32400411 109.47446201 -105.46338669 105.66965442 -105.2734375 100.73828125 C-104.74930811 96.95357946 -103.53874027 95.10407493 -100.9375 92.3125 C-95.02502581 87.91357607 -88.62436045 84.43550222 -82.125 81 C-74.14077638 76.68519677 -66.92808783 72.13623783 -59.9375 66.3125 C-59.06996094 65.61898437 -58.20242188 64.92546875 -57.30859375 64.2109375 C-47.11550928 55.65185894 -41.1799333 45.34967856 -35.9375 33.3125 C-36.49301041 33.32138245 -37.04852081 33.33026489 -37.62086487 33.3394165 C-43.47850092 33.42890708 -49.33593843 33.48864884 -55.1940918 33.53222656 C-57.37125556 33.55216367 -59.54836704 33.57932339 -61.7253418 33.61425781 C-92.09198826 34.08884571 -92.09198826 34.08884571 -103.9375 25.3125 C-107.82427588 20.08545657 -108.49013485 14.72306429 -107.9375 8.3125 C-104.91427721 1.41955205 -100.37500019 -2.86764696 -93.75 -6.375 C-68.23119315 -16.08823955 -22.19845137 -17.87407773 0 0 Z " fill="#FDFEFD" transform="translate(345.9375,349.6875)"/>
<path d="M0 0 C7.08854277 5.90267753 9.4558466 13.18171585 11 22 C11.07790887 23.83848168 11.10793615 25.67942827 11.09765625 27.51953125 C11.09443359 28.54111328 11.09121094 29.56269531 11.08789062 30.61523438 C11.07532227 32.19788086 11.07532227 32.19788086 11.0625 33.8125 C11.05798828 34.88693359 11.05347656 35.96136719 11.04882812 37.06835938 C11.03707729 39.71229683 11.02064787 42.35611952 11 45 C12.16917969 44.92394531 13.33835937 44.84789062 14.54296875 44.76953125 C20.9969235 44.7758401 27.07218485 46.49279317 33.2644043 48.14331055 C35.29446735 48.68270863 37.32908038 49.20093184 39.36523438 49.71679688 C66.02593776 56.60698063 66.02593776 56.60698063 73.859375 67.65625 C75.99050759 72.03528957 75.8244547 76.27876366 75 81 C73.29967977 85.8760506 70.27447705 89.15034863 66 92 C54.14815143 95.95061619 38.78959452 92.77847519 27 90 C25.41020728 89.6364955 23.82036155 89.27322275 22.23046875 88.91015625 C18.14660592 87.96807908 14.07182213 86.99275861 10 86 C10.04640625 86.72960937 10.0928125 87.45921875 10.140625 88.2109375 C10.53561725 99.63749907 9.39784459 114.10725804 2.34765625 123.59375 C-2.73170051 128.89394836 -8.68630493 131.04524335 -15.875 131.375 C-22.66975587 131.21151715 -27.05029568 128.94970432 -31.8125 124.1875 C-36.31797308 117.62238208 -37.71616436 111.48210558 -38.6640625 103.6953125 C-38.79019928 102.66375031 -38.91633606 101.63218811 -39.04629517 100.56936646 C-40.5102124 87.19157523 -40.45363178 73.77258941 -40.39111328 60.33300781 C-40.37386616 56.5929491 -40.38401414 52.85352948 -40.40183067 49.11349297 C-40.41276992 46.172265 -40.40917894 43.23118418 -40.4014473 40.28995132 C-40.39854522 38.25521665 -40.40746461 36.22047564 -40.4168396 34.1857605 C-40.33592502 23.3800021 -40.05681028 11.12072239 -32.6796875 2.55078125 C-23.49402001 -5.92993966 -10.52793489 -6.2708337 0 0 Z " fill="#FDFEFD" transform="translate(410,337)"/>
<path d="M0 0 C1.15177734 -0.020625 2.30355469 -0.04125 3.49023438 -0.0625 C16.3041833 -0.11999388 32.65499369 1.94644874 42.33203125 11.34765625 C51.03598306 21.66109793 51.04241542 32.2705127 50.22363281 45.23876953 C49.48241761 53.03923739 47.80183263 60.65117993 45.9375 68.25 C46.87851562 68.45753906 47.81953125 68.66507812 48.7890625 68.87890625 C61.47273096 72.01699814 61.47273096 72.01699814 65.078125 77.19140625 C66.76220332 81.22553932 66.75969937 84.99845626 65.9375 89.25 C63.72507561 93.67484878 60.98950384 96.44476657 56.9375 99.25 C53.17856473 100.50297842 49.65486182 100.42175189 45.73754883 100.44287109 C44.48332626 100.45513733 44.48332626 100.45513733 43.20376587 100.46765137 C40.43402824 100.49248126 37.66434184 100.50901684 34.89453125 100.5234375 C33.4738865 100.53142302 33.4738865 100.53142302 32.02454185 100.53956985 C27.00977768 100.56629329 21.9950383 100.58566921 16.98022461 100.60009766 C12.83546842 100.61342798 8.69120558 100.64126506 4.54663086 100.68212891 C-0.46247174 100.73151475 -5.47112737 100.75622625 -10.48046303 100.76332474 C-12.38579499 100.7700267 -14.29111739 100.78522122 -16.19631004 100.80921555 C-18.86992277 100.84096147 -21.54182317 100.84088981 -24.21557617 100.83349609 C-24.99561508 100.84990143 -25.77565399 100.86630676 -26.57933044 100.88320923 C-32.46843336 100.81689159 -36.50394215 98.97566523 -41.0625 95.25 C-44.19682992 91.03824417 -44.71318687 86.85841649 -44.53515625 81.71875 C-43.7231879 77.4777252 -41.55889702 74.70921955 -38.0625 72.25 C-32.05113502 69.58425573 -27.28219952 68.83243745 -20.75 68.95703125 C-19.46851074 68.96339851 -19.46851074 68.96339851 -18.16113281 68.96989441 C-15.46125318 68.98654297 -12.76214989 69.02416777 -10.0625 69.0625 C-8.22006295 69.07756477 -6.37761407 69.09125002 -4.53515625 69.10351562 C-0.04397661 69.13640094 4.44663056 69.18808544 8.9375 69.25 C9.07341553 68.05890625 9.20933105 66.8678125 9.34936523 65.640625 C9.8022334 62.02681746 10.48089536 58.54081044 11.34765625 55 C11.74887695 53.34677734 11.74887695 53.34677734 12.15820312 51.66015625 C12.43599609 50.53480469 12.71378906 49.40945312 13 48.25 C13.28166016 47.09371094 13.56332031 45.93742187 13.85351562 44.74609375 C14.54421217 41.91306724 15.2389699 39.08110327 15.9375 36.25 C15.10726318 36.26047363 14.27702637 36.27094727 13.42163086 36.28173828 C-27.6738 36.73217727 -27.6738 36.73217727 -36.0625 30.25 C-39.63482791 26.3204393 -40.42158406 22.61103893 -40.34375 17.30859375 C-39.74791485 12.94741149 -36.9687953 10.21293876 -34.0625 7.125 C-23.65843862 0.62246164 -11.90494952 0.05207195 0 0 Z " fill="#FDFEFD" transform="translate(280.0625,197.75)"/>
<path d="M0 0 C7.15029733 5.67864777 10.0203223 13.44240077 11.30859375 22.21875 C11.93554515 28.33168335 11.93213358 34.45620728 11.93139648 40.59619141 C11.9335747 42.61903205 11.9517691 44.64131834 11.97070312 46.6640625 C12.00796496 72.02695056 5.05129065 97.91648949 -13.18359375 116.3359375 C-26.0908589 128.28422913 -41.72979385 132.79719705 -59.08984375 132.59765625 C-64.76449604 132.2193461 -68.57479334 131.02385384 -72.75390625 126.94921875 C-74.97450096 121.67530633 -75.32728637 117.01271109 -74.25390625 111.38671875 C-70.22060099 103.65514317 -61.97500855 99.91761895 -54.6015625 95.96484375 C-46.79844286 91.59979035 -42.1890824 86.9466882 -39.44140625 78.32421875 C-37.45406116 71.08546482 -37.1040075 63.92032662 -37.04296875 56.46484375 C-37.01489514 54.53254368 -36.98623064 52.60025213 -36.95703125 50.66796875 C-36.9159001 47.65560191 -36.8789648 44.64339312 -36.85253906 41.63085938 C-36.64849345 20.17088973 -36.64849345 20.17088973 -33.25390625 11.38671875 C-32.86203125 10.31421875 -32.47015625 9.24171875 -32.06640625 8.13671875 C-29.26289392 3.88311383 -25.26426604 -0.53327588 -20.359375 -2.29296875 C-13.38911523 -3.35337933 -6.21878894 -3.68472942 0 0 Z " fill="#FDFEFD" transform="translate(218.25390625,335.61328125)"/>
<path d="M0 0 C7.79328861 5.66784626 11.06233485 11.59847761 12.75 21 C18.46526045 68.99073659 18.46526045 68.99073659 7.00390625 84.5234375 C6.59011719 85.01070313 6.17632812 85.49796875 5.75 86 C5.09 86.78375 4.43 87.5675 3.75 88.375 C-2.06629713 93.10074142 -9.12353328 92.71176795 -16.25 92 C-21.16955333 90.42812199 -24.45840404 87.28709379 -27.25 83 C-32.80816575 72.09744411 -32.62274805 60.51776017 -32.62060547 48.55249023 C-32.62496266 45.83577999 -32.66132319 43.12071932 -32.69921875 40.40429688 C-32.77775219 28.378461 -32.71591346 15.15011567 -24.9375 5.25 C-17.96711461 -1.52881032 -9.1568428 -2.81749009 0 0 Z " fill="#FDFEFD" transform="translate(139.25,334)"/>
<path d="M0 0 C3.73243704 0.07813475 4.55049273 0.33474455 7.6875 2.6875 C11.88419762 8.45795923 11.28664906 15.55138959 10.6875 22.4375 C9.54335567 26.32047688 8.29206148 29.45258625 4.765625 31.6171875 C1.55023938 32.88641867 -0.89904954 32.86418131 -4.3125 32.4375 C-9.30591358 27.44408642 -9.51978299 23.41166496 -9.5625 16.625 C-9.583125 15.81740234 -9.60375 15.00980469 -9.625 14.17773438 C-9.65626365 9.40611951 -9.36941805 6.3328446 -6.3125 2.4375 C-3.94209692 0.06709692 -3.24947247 0.09284207 0 0 Z " fill="#FBFDFC" transform="translate(223.3125,140.5625)"/>
<path d="M0 0 C2.50160818 1.87620613 3.61945652 3.23891303 5 6 C5.15173086 8.92957281 5.23145226 11.81945745 5.25 14.75 C5.270625 15.54921875 5.29125 16.3484375 5.3125 17.171875 C5.3455384 22.19371226 4.83822556 25.67634797 2 30 C-1.21578917 32.14385945 -3.231956 32.4719871 -7.0625 32.39453125 C-9 32 -9 32 -11.4375 29.625 C-14.32609877 24.77215407 -14.21686688 21.25800513 -14.25 15.6875 C-14.270625 14.83220703 -14.29125 13.97691406 -14.3125 13.09570312 C-14.34251916 8.25136152 -14.21172305 4.90551759 -11 1 C-7.55258453 -0.72370774 -3.76964661 -0.50306672 0 0 Z " fill="#FCFDFC" transform="translate(204,141)"/>
</svg>
